<svg xmlns="http://www.w3.org/2000/svg" width="1024" height="1024" viewBox="0 0 100 100">
  <defs>
    <linearGradient id="dollarGreen" x1="0%" y1="0%" x2="100%" y2="100%">
      <stop offset="0%" stop-color="#85bb65"/><stop offset="100%" stop-color="#6b9b4f"/>
    </linearGradient>
    <linearGradient id="whiteGlow" x1="0%" y1="0%" x2="100%" y2="100%">
      <stop offset="0%" stop-color="#ffffff"/><stop offset="100%" stop-color="#f0f0f0"/>
    </linearGradient>
  </defs>
  <circle cx="50" cy="50" r="48" fill="url(#dollarGreen)"/>
  <path d="M 50 20 C 35 20, 25 30, 25 45 C 25 60, 35 70, 50 70 L 65 70 L 65 55 L 45 55 L 45 50 L 70 50 L 70 75 L 50 75 C 32 75, 20 63, 20 45 C 20 27, 32 15, 50 15 C 65 15, 75 23, 78 35 L 72 37 C 70 27, 61 20, 50 20 Z" fill="url(#whiteGlow)" stroke="#ffffff" stroke-width="1.5"/>
  <path d="M 55 35 L 75 35" stroke="#ffffff" stroke-width="2" stroke-linecap="round" opacity="0.7"/>
  <path d="M 60 42 L 75 42" stroke="#ffffff" stroke-width="2" stroke-linecap="round" opacity="0.5"/>
</svg>
