<svg xmlns="http://www.w3.org/2000/svg" width="100" height="100" viewBox="0 0 100 100"><rect x="0" y="0" width="100" height="100" rx="20" fill="#0e1320"/><polygon points="50,48 80,32 80,64 50,80" fill="#2a323f"/><polygon points="20,32 50,48 50,80 20,64" fill="#39424f"/><polygon points="50,16 80,32 50,48 20,32" fill="#525c6b"/><g fill="none" stroke="#8b95a4" stroke-width="1.4" stroke-linejoin="round"><polygon points="50,16 80,32 50,48 20,32"/><polyline points="20,32 20,64 50,80 80,64 80,32"/></g><path d="M 53.26 47.50 A 13 13 0 1 0 53.26 60.50" fill="none" stroke="#ffffff" stroke-width="7" stroke-linecap="round" stroke-opacity="1.0"/><path d="M 42.00 54.00 L 55.00 54.00" fill="none" stroke="#ffffff" stroke-width="7" stroke-linecap="round" stroke-opacity="1.0"/><path d="M 46.74 60.50 A 13 13 0 1 0 46.74 47.50" fill="none" stroke="#ffffff" stroke-width="7" stroke-linecap="round" stroke-opacity="1.0"/><path d="M 58.00 54.00 L 45.00 54.00" fill="none" stroke="#ffffff" stroke-width="7" stroke-linecap="round" stroke-opacity="1.0"/><path d="M 47.08 42.03 A 13 13 0 0 1 52.38 46.17" fill="none" stroke="#1a1e26" stroke-width="9.4" stroke-linecap="round"/><path d="M 47.10 46.92 A 13 13 0 0 1 53.77 41.71" fill="none" stroke="#ffffff" stroke-width="7" stroke-linecap="round"/><path d="M 52.92 65.97 A 13 13 0 0 1 47.62 61.83" fill="none" stroke="#1a1e26" stroke-width="9.4" stroke-linecap="round"/><path d="M 52.90 61.08 A 13 13 0 0 1 46.23 66.29" fill="none" stroke="#ffffff" stroke-width="7" stroke-linecap="round"/></svg>